<svg fill="currentColor" version="1.1" viewBox="0 0 386 386" xml:space="preserve" xmlns="http://www.w3.org/2000/svg">

    <path class="st0" d="m260.65 125.35c-9.12-68.32-32.2-125.35-67.65-125.35s-58.53 57.03-67.65 125.35c-68.32 9.12-125.35 32.2-125.35 67.65s57.04 58.53 125.35 67.65c9.12 68.31 32.2 125.35 67.65 125.35s58.53-57.04 67.65-125.35c68.32-9.12 125.35-32.2 125.35-67.65s-57.04-58.53-125.35-67.65zm-137.53 115.4c-65.43-9.45-103.59-31.08-103.59-47.75s38.16-38.3 103.59-47.75c-1.44 15.75-2.19 31.83-2.19 47.75s0.75 32.01 2.19 47.75zm69.88-221.22c16.67 0 38.3 38.16 47.75 103.59-15.74-1.44-31.83-2.19-47.75-2.19s-32.01 0.75-47.75 2.19c9.45-65.43 31.08-103.59 47.75-103.59zm69.88 221.22c-3.22 0.47-16.43 2.02-19.77 2.35-0.33 3.35-1.89 16.55-2.35 19.77-9.45 65.43-31.08 103.59-47.75 103.59s-38.3-38.16-47.75-103.59c-0.46-3.22-2.02-16.43-2.35-19.77-1.52-15.51-2.44-32.17-2.44-50.1s0.92-34.59 2.44-50.11c15.51-1.52 32.17-2.44 50.1-2.44s34.59 0.92 50.1 2.44c3.35 0.33 16.55 1.89 19.77 2.35 65.43 9.45 103.6 31.09 103.6 47.75s-38.17 38.31-103.6 47.76z"/>
</svg>
